<svg width="320" height="321" viewBox="0 0 320 321" fill="none" xmlns="http://www.w3.org/2000/svg">
<line y1="121" x2="320" y2="121" stroke="#864724" stroke-width="50"/>
<line x1="48" y1="321" x2="48" y2="141" stroke="#864724" stroke-width="20"/>
<line x1="275" y1="322" x2="275" y2="142" stroke="#864724" stroke-width="20"/>
<path d="M162.016 3.125H79.9844C77.0547 3.125 74.125 6.05469 74.125 8.98438V74.9031C74.125 77.8328 77.0547 80.7625 79.9844 80.7625H109.281V86.6219C109.281 90.6906 104.003 92.4812 97.5625 92.4812V96.875H144.438V92.4797C137.995 92.4797 132.719 90.6891 132.719 86.6203V80.7609H162.016C164.945 80.7609 167.875 77.8313 167.875 74.9016V8.98438C167.875 6.05469 164.945 3.125 162.016 3.125ZM164.75 74.9031C164.75 76.1047 163.216 77.6375 162.016 77.6375H79.9844C78.7828 77.6375 77.25 76.1047 77.25 74.9031V69.0437H164.75V74.9031Z" fill="#353535"/>
<path d="M121 76.3688C121.809 76.3688 122.466 75.7126 122.466 74.9031C122.466 74.0937 121.809 73.4375 121 73.4375C120.191 73.4375 119.534 74.0937 119.534 74.9031C119.534 75.7126 120.191 76.3688 121 76.3688Z" fill="#353535"/>
</svg>
